<?xml version="1.0" encoding="UTF-8"?>
<svg width="14px" height="14px" viewBox="0 0 14 14" version="1.1" xmlns="http://www.w3.org/2000/svg" xmlns:xlink="http://www.w3.org/1999/xlink">
    <title>icon/rocket copy</title>
    <g id="Page-1" stroke="none" stroke-width="1" fill="none" fill-rule="evenodd" opacity="0.9">
        <g id="ResoluCellars_Home" transform="translate(-1251.000000, -84.000000)" fill="#FFFFFF" fill-rule="nonzero">
            <g id="Group" transform="translate(1250.000000, 83.000000)">
                <g id="noun_Search_1903550" transform="translate(1.666667, 1.333333)">
                    <path d="M9.6030025,9.26304747 C10.5326661,8.27694729 11.0925771,6.95515342 11.0925771,5.50747443 C11.0925771,2.47574089 8.60995274,0 5.54628857,0 C2.48262441,0 0,2.47574089 0,5.50747443 C0,8.53920797 2.48262441,11.0149489 5.54628857,11.0149489 C6.61328885,11.0149489 7.61690297,10.7107265 8.46205171,10.1862051 L11.4200723,13.1235248 L11.4200723,13.1235248 C11.5679733,13.2703908 11.7475674,13.3333333 11.9377259,13.3333333 C12.1278843,13.3333333 12.3180428,13.2599003 12.4553795,13.1235248 C12.5927162,12.9871492 12.6666667,12.7983215 12.6666667,12.6094938 C12.6666667,12.4206661 12.5927162,12.2318384 12.4553795,12.0954629 L9.6030025,9.26304747 Z M0.739505143,5.50747443 C0.739505143,2.87437713 2.89463442,0.734329924 5.54628857,0.734329924 C8.19794273,0.734329924 10.353072,2.87437713 10.353072,5.50747443 C10.353072,8.14057173 8.19794273,10.2806189 5.54628857,10.2806189 C2.89463442,10.2806189 0.739505143,8.14057173 0.739505143,5.50747443 Z" id="Shape"></path>
                </g>
            </g>
        </g>
    </g>
</svg>