<?xml version="1.0" encoding="UTF-8"?>
<svg width="18px" height="16px" viewBox="0 0 18 16" version="1.1" xmlns="http://www.w3.org/2000/svg" xmlns:xlink="http://www.w3.org/1999/xlink">
    <title>icon/rocket copy 2</title>
    <g id="Page-1" stroke="none" stroke-width="1" fill="none" fill-rule="evenodd">
        <g id="ResoluCellars_Home" transform="translate(-1247.000000, -8.000000)" fill="#FFFFFF" fill-rule="nonzero">
            <g id="cart_ico" transform="translate(1246.000000, 6.000000)">
                <path d="M6.73757988,6.72084152 L7.31115534,8.88967742 L8.98088018,8.88967742 L8.59165799,6.72084152 L6.73757988,6.72084152 Z M7.54670187,9.77797415 L8.04876015,11.6887304 L9.49300455,11.6887304 L9.14490953,9.77797415 L7.54670187,9.77797415 Z M9.88241847,8.88977408 L11.7364007,8.88977408 L11.7364007,6.72093818 L9.48274672,6.72093818 L9.88241847,8.88977408 Z M12.6175192,8.88977408 L14.4612436,8.88977408 L14.8609154,6.72093818 L12.6175192,6.72093818 L12.6175192,8.88977408 Z M15.3626861,8.88977408 L17.1245396,8.88977408 L17.4319868,7.54708313 L17.4422446,7.44394792 C17.4524066,7.30959183 17.3705357,7.16498989 17.2577955,7.04116964 C17.1245396,6.90681355 16.9299285,6.80358168 16.7353174,6.75186908 C16.6534465,6.73118404 16.5816418,6.72093818 16.499675,6.72093818 L15.7519082,6.72093818 L15.3626861,8.88977408 Z M17.9340451,9.27186733 L17.944207,9.33392244 C17.944207,9.4268118 17.9133377,9.50955195 17.8621444,9.58175626 L17.5651468,10.8622954 C17.4524066,11.3272255 17.2475376,11.7712772 16.9299285,12.0915087 C16.6329309,12.3909584 16.2437087,12.5768338 15.7724239,12.5768338 L14.4509858,12.5768338 C14.3793728,12.5976155 14.307568,12.607958 14.2359549,12.5870796 L14.1847617,12.5768338 L12.1873616,12.5768338 L12.176912,12.5768338 L12.1666542,12.5768338 L8.28430668,12.5768338 L8.79652691,14.48759 L14.9426904,14.48759 C15.0041415,14.48759 15.0759463,14.4773441 15.1475593,14.4773441 C15.6084904,14.4773441 16.0388398,14.673562 16.3460952,14.983451 C16.6534465,15.2933399 16.8480576,15.7168032 16.8480576,16.1917858 C16.8480576,16.6670584 16.6534465,17.1007676 16.3460952,17.4001207 C16.0388398,17.7203521 15.6084904,17.9063241 15.1475593,17.9063241 C14.6865323,17.9063241 14.2767945,17.7306946 13.9696349,17.4312449 L13.9389573,17.4104632 C13.6315101,17.1006709 13.4471569,16.6669617 13.4471569,16.1917858 C13.4471569,15.9026786 13.5187699,15.6237205 13.641768,15.3862292 L10.107803,15.3862292 C10.2408672,15.6237205 10.312672,15.9026786 10.312672,16.2021283 C10.312672,16.6670584 10.1385765,17.0800825 9.84138716,17.3898748 L9.82087151,17.4208057 C9.51371193,17.7307913 9.08336257,17.9166667 8.61217364,17.9166667 C8.1510508,17.9166667 7.731151,17.7307913 7.42389556,17.4208057 L7.413446,17.4208057 C7.10628642,17.1007676 6.91167532,16.6774009 6.91167532,16.2021283 C6.91167532,15.7373916 7.09602859,15.3140249 7.40328404,15.0040393 L7.413446,14.9936968 C7.5569597,14.8490949 7.73105514,14.7252746 7.9257621,14.6425345 L7.29063969,12.2670415 L7.29063969,12.2464531 L7.28038186,12.2361106 L7.28038186,12.2257681 L6.55303488,9.46798856 L6.54287292,9.43705766 L6.54287292,9.42671514 L6.53261509,9.41646928 L5.81552594,6.72074486 L4.99605026,6.72074486 C4.63750568,6.72074486 4.29938089,6.57604626 4.06383436,6.32821244 C3.82819196,6.09072114 3.6745163,5.76014717 3.6745163,5.38829978 L3.6745163,3.9321311 L3.6745163,3.92169192 L3.6745163,3.9113494 L3.6745163,3.34347745 C3.6745163,3.24014892 3.63358086,3.14706625 3.57203391,3.07486193 C3.50042086,3.01290348 3.40829216,2.97163006 3.31597172,2.97163006 L2.11753168,2.97163006 C1.87172732,2.97163006 1.66666667,2.77541217 1.66666667,2.52738504 C1.66666667,2.27955122 1.87172732,2.08333333 2.11753168,2.08333333 L3.31597172,2.08333333 C3.65400065,2.08333333 3.97151392,2.22803194 4.19699436,2.45518072 C4.42228307,2.6823295 4.56579676,2.9923151 4.56579676,3.34347745 L4.56579676,3.9113494 L4.56579676,3.92169192 L4.56579676,3.9321311 L4.56579676,5.38829978 C4.56579676,5.51231335 4.6067322,5.62579108 4.68860308,5.70853123 C4.77056982,5.78073554 4.88321417,5.83235148 4.99595439,5.83235148 L6.14329704,5.83235148 L6.153459,5.83235148 L12.1664625,5.83235148 L12.1767203,5.83235148 L12.1871699,5.83235148 L16.4995791,5.83235148 C16.6430928,5.83235148 16.7865107,5.85303652 16.9297368,5.88416073 C17.2882813,5.96670757 17.636664,6.16292545 17.8824683,6.42129511 C18.159142,6.70005983 18.3333333,7.05131884 18.3333333,7.4437546 C18.3333333,7.54688982 18.3230755,7.65031501 18.2922062,7.75354688 L17.9340451,9.27186733 Z M16.9095087,9.77797415 L15.1987526,9.77797415 L14.8504658,11.6887304 L15.7724239,11.6887304 C15.9875506,11.6887304 16.1719039,11.5956477 16.3051598,11.4614849 C16.4997709,11.265267 16.6329309,10.9759665 16.7046398,10.6559284 L16.9095087,9.77797415 Z M14.307568,9.77797415 L12.6175192,9.77797415 L12.6175192,11.6887304 L13.9492151,11.6887304 L14.307568,9.77797415 Z M11.7364007,9.77797415 L10.0461602,9.77797415 L10.394447,11.6887304 L11.7364007,11.6887304 L11.7364007,9.77797415 L11.7364007,9.77797415 Z" id="Shape"></path>
            </g>
        </g>
    </g>
</svg>