<?xml version="1.0" encoding="UTF-8"?>
<svg width="13px" height="18px" viewBox="0 0 13 18" version="1.1" xmlns="http://www.w3.org/2000/svg" xmlns:xlink="http://www.w3.org/1999/xlink">
    <title>icon/rocket copy 3</title>
    <g id="Page-1" stroke="none" stroke-width="1" fill="none" fill-rule="evenodd">
        <g id="ResoluCellars_Home" transform="translate(-1099.000000, -7.000000)" fill="#F7F8F9" fill-rule="nonzero">
            <g id="Group-4" transform="translate(1095.000000, 6.000000)">
                <path d="M13.3466135,12.7656042 C12.7224436,12.6294821 11.9754316,12.8685259 11.7065073,13.4495352 C11.5504648,13.7848606 11.5272244,14.2430279 11.188579,14.3924303 C10.9462151,14.501992 10.6673307,14.3791501 10.434927,14.249668 C9.29282869,13.6122178 7.00199203,9.05710491 7.17463479,7.75896414 C7.20783533,7.49667995 7.28087649,7.19787517 7.50996016,7.06839309 C7.83200531,6.88579017 8.21381142,7.14143426 8.57569721,7.21447543 C9.20318725,7.34727756 9.8373174,6.88911023 10.1029216,6.30810093 C10.3685259,5.72709163 10.3386454,5.05312085 10.249004,4.4189907 C10.1427623,3.67861886 9.9435591,2.91832669 9.45219124,2.35723772 C8.05112882,0.763612218 5.98273572,2.37051793 5.1560425,3.71513944 C4.624834,4.58167331 4.33266932,5.57436919 4.19322709,6.57370518 C3.89110226,8.70517928 7.71912351,16.3213811 9.61155378,17.3539177 C10.498008,17.8386454 11.4674635,18.1938911 12.4734396,18.2835325 C14.0471448,18.4229748 16.5703851,17.7224436 16.1288181,15.6474104 C15.9727756,14.9169987 15.4814077,14.3027888 14.9501992,13.7782205 C14.4920319,13.3266932 13.9707835,12.9017264 13.3466135,12.7656042 Z" id="XMLID_1_"></path>
            </g>
        </g>
    </g>
</svg>